<?xml version="1.0" encoding="iso-8859-1"?>
<!-- Uploaded to: SVG Repo, www.svgrepo.com, Generator: SVG Repo Mixer Tools -->
<svg height="800px" width="800px" version="1.1" id="Layer_1" xmlns="http://www.w3.org/2000/svg" xmlns:xlink="http://www.w3.org/1999/xlink" 
	 viewBox="0 0 512 512" xml:space="preserve">
<path style="fill:#EDBF00;" d="M504.455,336.91V208.676L301.598,50.709c-26.814-20.88-64.384-20.88-91.197,0L7.545,208.676V336.91
	l-0.416,98.635l0.831,6.047c2.947,21.46,21.536,37.641,43.241,37.641h409.6c21.703,0,40.293-16.182,43.241-37.641l0.831-6.047
	L504.455,336.91z"/>
<path style="fill:#ECE5DD;" d="M385.347,90.652H126.653c-23.663,0-43.116,19.108-43.116,43.116v215.579h344.926V133.768
	C428.463,109.76,409.01,90.652,385.347,90.652z"/>
<path style="fill:#D9CBBD;" d="M395.587,91.886v194.731v62.73h32.876v-62.73v-152.85C428.463,113.336,414.371,96.462,395.587,91.886
	z"/>
<path style="fill:#FEDA44;" d="M274.499,317.003c-5.602-3.337-11.997-5.101-18.499-5.101c-6.465,0-12.824,1.744-18.486,5.094
	L7.129,435.545l0.831,6.047c2.947,21.46,21.536,37.641,43.241,37.641h409.6c21.703,0,40.293-16.182,43.241-37.641l0.831-6.047
	L274.499,317.003z"/>
<g>
	<polygon style="fill:#FFCE00;" points="7.545,208.676 194.668,340.265 7.545,436.541 	"/>
	<polygon style="fill:#FFCE00;" points="504.455,208.676 317.332,340.265 504.455,436.541 	"/>
</g>
<polygon style="fill:#EDBF00;" points="471.579,419.626 504.455,436.541 504.455,432.629 504.455,217.062 504.455,208.676 
	471.579,231.795 "/>
<path style="fill:#FFCE00;" d="M504.871,435.545l-33.3-17.106v14.215v45.233c16.813-4.319,30.017-18.475,32.462-36.27l0.414-3.016
	L504.871,435.545z"/>
<g>
	<path style="fill:#BABABA;" d="M148.211,163.41h129.347c4.465,0,8.084-3.62,8.084-8.084c0-4.465-3.62-8.084-8.084-8.084H148.211
		c-4.465,0-8.084,3.62-8.084,8.084C140.126,159.79,143.746,163.41,148.211,163.41z"/>
	<path style="fill:#BABABA;" d="M320.674,163.41h43.116c4.465,0,8.084-3.62,8.084-8.084c0-4.465-3.62-8.084-8.084-8.084h-43.116
		c-4.465,0-8.084,3.62-8.084,8.084C312.589,159.79,316.209,163.41,320.674,163.41z"/>
	<path style="fill:#BABABA;" d="M148.211,206.526h64.674c4.465,0,8.084-3.62,8.084-8.084c0-4.465-3.62-8.084-8.084-8.084h-64.674
		c-4.465,0-8.084,3.62-8.084,8.084C140.126,202.906,143.746,206.526,148.211,206.526z"/>
	<path style="fill:#BABABA;" d="M256,206.526h21.558c4.465,0,8.084-3.62,8.084-8.084c0-4.465-3.62-8.084-8.084-8.084H256
		c-4.465,0-8.084,3.62-8.084,8.084C247.916,202.906,251.535,206.526,256,206.526z"/>
	<path style="fill:#BABABA;" d="M320.674,206.526h43.116c4.465,0,8.084-3.62,8.084-8.084c0-4.465-3.62-8.084-8.084-8.084h-43.116
		c-4.465,0-8.084,3.62-8.084,8.084C312.589,202.906,316.209,206.526,320.674,206.526z"/>
	<path style="fill:#BABABA;" d="M247.916,241.557c0,4.465,3.62,8.084,8.084,8.084h107.789c4.465,0,8.084-3.62,8.084-8.084
		c0-4.465-3.62-8.084-8.084-8.084H256C251.535,233.473,247.916,237.093,247.916,241.557z"/>
	<path style="fill:#BABABA;" d="M220.968,241.557c0-4.465-3.62-8.084-8.084-8.084h-64.674c-4.465,0-8.084,3.62-8.084,8.084
		c0,4.465,3.62,8.084,8.084,8.084h64.674C217.349,249.642,220.968,246.023,220.968,241.557z"/>
</g>
<path d="M508.641,201.009l0.002-0.003l-72.096-51.973v-16.782c0-28.584-22.969-51.838-51.2-51.838h-29.889L292.558,38.48
	c-22.208-14.805-50.908-14.805-73.115,0l-62.901,41.933h-29.89c-28.231,0-51.2,23.254-51.2,51.838v16.782L3.357,201.006l0.002,0.003
	C1.271,202.514,0,204.942,0,207.564v225.94c0,28.188,22.969,51.12,51.2,51.12h409.6c28.231,0,51.2-22.932,51.2-51.12v-225.94
	C512,204.942,510.729,202.514,508.641,201.009z M436.547,168.964l53.43,38.518l-53.43,37.57V168.964z M91.621,132.251
	c0-19.335,16.042-35.67,35.032-35.67h32.269c0.02,0,0.041,0,0.061,0H261.85c4.465,0,8.084-3.62,8.084-8.084s-3.62-8.084-8.084-8.084
	h-76.16l42.721-28.481c16.759-11.172,38.418-11.173,55.177,0l42.721,28.481h-28.816c-4.465,0-8.084,3.62-8.084,8.084
	s3.62,8.084,8.084,8.084h55.494c0.005,0,0.01,0.001,0.015,0.001c0.005,0,0.012-0.001,0.017-0.001h32.327
	c18.989,0,35.032,16.334,35.032,35.67v124.17l-102.657,72.184l-39.523-20.337c-13.718-8.101-30.68-8.101-44.397,0l-39.523,20.337
	L91.621,256.421V132.251z M75.453,168.964v76.088l-53.43-37.57L75.453,168.964z M16.168,223.131l161.877,113.826L16.168,420.252
	V223.131z M460.8,468.454H51.2c-17.697,0-32.363-13.164-34.699-30.191l224.917-115.732c0.154-0.08,0.306-0.164,0.455-0.252
	c8.714-5.219,19.54-5.219,28.254,0c0.149,0.089,0.301,0.174,0.455,0.252l224.917,115.733
	C493.163,455.291,478.497,468.454,460.8,468.454z M495.832,420.252l-161.877-83.294l161.877-113.827V420.252z"/>
</svg>